<svg xmlns="http://www.w3.org/2000/svg" width="800.5" height="440.2" viewBox="0 0 211.8 116.5" version="1.1" id="svg8">
  <g id="layer1" transform="translate(1 -68.8)" stroke="none" stroke-linecap="butt" stroke-linejoin="miter" stroke-opacity="1">
    <path d="M6.4 69.3h197a7 7 0 016.9 7v101.5a7 7 0 01-7 7H6.4a7 7 0 01-7-7V76.2a7 7 0 017-7z" id="tmpMainBg" opacity="1" vector-effect="none" fill="#000" fill-opacity="1" stroke-width="1" stroke-miterlimit="4" stroke-dasharray="none" stroke-dashoffset="0"/>
    <path d="M-.7 78.6v99.2c0 4.2 3.1 7.6 7 7.6h37.4V78.6z" id="tmpNav" opacity="1" vector-effect="none" fill="#f2f2f2" fill-opacity="1" stroke-width="1" stroke-miterlimit="4" stroke-dasharray="none" stroke-dashoffset="0"/>
    <path d="M56.2 80.7H138c1.2 0 2.1 1 2.1 2.1v51.3c0 1.2-1 2.1-2.1 2.1H56.2c-1.2 0-2.1-.9-2.1-2V82.7c0-1.2 1-2.1 2-2.1z" id="tmpMainImgBg" opacity="1" vector-effect="none" fill="#f2f2f2" fill-opacity="1" stroke-width="1.1" stroke-miterlimit="4" stroke-dasharray="none" stroke-dashoffset="0"/>
    <path d="M340.3 363.5a13.3 12 0 00-13.3 12 13.3 12 0 0013.3 12 13.3 12 0 0013.2-12 13.3 12 0 00-13.2-12zm62.8 11.2l-59 46.9-24.4-17-31.5 52.6 150.4-.3z" transform="scale(.26458)" id="tmpMainImg" fill="#000" stroke-width="1.3"/>
    <path d="M56.5 140.7h59.8c1.4 0 2.5 1 2.5 2.4v1.8c0 1.4-1.1 2.5-2.5 2.5H56.5c-1.4 0-2.5-1.1-2.5-2.5v-1.8c0-1.3 1.1-2.4 2.5-2.4z" id="tmpMainHeader" opacity="1" vector-effect="none" fill="#b3b3b3" fill-opacity="1" stroke-width="1.3" stroke-miterlimit="4" stroke-dasharray="none" stroke-dashoffset="0"/>
    <path d="M56 162.4h39c1.2 0 2.1.6 2.1 1.3v1c0 .6-.9 1.2-2 1.2H56c-1.2 0-2-.6-2-1.3v-.9c0-.7.8-1.3 2-1.3z" id="tmpMainLine2" opacity="1" vector-effect="none" fill="#f2f2f2" fill-opacity="1" stroke-width=".8" stroke-miterlimit="4" stroke-dasharray="none" stroke-dashoffset="0"/>
    <path d="M56.2 151.8h79.1c1.2 0 2.2.6 2.2 1.3v1c0 .8-1 1.4-2.2 1.4H56.2c-1.2 0-2.2-.6-2.2-1.4v-1c0-.7 1-1.3 2.2-1.3z" id="tmpMainLine1" opacity="1" vector-effect="none" fill="#f2f2f2" fill-opacity="1" stroke-width=".9" stroke-miterlimit="4" stroke-dasharray="none" stroke-dashoffset="0"/>
    <path d="M155.8 81h46.6c1.3 0 2.3 1.1 2.3 2.4V143c0 1.3-1 2.4-2.3 2.4h-46.6c-1.3 0-2.4-1-2.4-2.4V83.4c0-1.3 1-2.4 2.4-2.4z" id="tmpSide" opacity="1" vector-effect="none" fill="#f2f2f2" fill-opacity="1" stroke-width="1.1" stroke-miterlimit="4" stroke-dasharray="none" stroke-dashoffset="0"/>
    <path d="M191.9 97a12.8 12.8 0 01-12.8 13 12.8 12.8 0 01-12.9-13 12.8 12.8 0 0112.9-12.7A12.8 12.8 0 01191.9 97z" id="tmpSideAva" opacity="1" vector-effect="none" fill="#b3b3b3" fill-opacity="1" stroke-width="1" stroke-miterlimit="4" stroke-dasharray="none" stroke-dashoffset="0"/>
    <path id="tmpSideLine1" d="M159 113.3h40.7c1.3 0 2.4.6 2.4 1.3v.9c0 .7-1 1.3-2.4 1.3h-40.6c-1.3 0-2.4-.6-2.4-1.3v-1c0-.6 1-1.2 2.4-1.2z" opacity="1" vector-effect="none" fill="#e6e6e6" fill-opacity="1" stroke-width=".9" stroke-miterlimit="4" stroke-dasharray="none" stroke-dashoffset="0"/>
    <path id="tmpSideLine2" d="M159 119.3h40.7c1.3 0 2.4.6 2.4 1.3v1c0 .6-1 1.2-2.4 1.2h-40.6c-1.3 0-2.4-.6-2.4-1.3v-.9c0-.7 1-1.3 2.4-1.3z" opacity="1" vector-effect="none" fill="#e6e6e6" fill-opacity="1" stroke-width=".9" stroke-miterlimit="4" stroke-dasharray="none" stroke-dashoffset="0"/>
    <path id="tmpSideLine3" d="M159 125.8h40.7c1.3 0 2.4.5 2.4 1.2v1c0 .7-1 1.2-2.4 1.2h-40.6c-1.3 0-2.4-.5-2.4-1.2v-1c0-.7 1-1.2 2.4-1.2z" opacity="1" vector-effect="none" fill="#e6e6e6" fill-opacity="1" stroke-width=".9" stroke-miterlimit="4" stroke-dasharray="none" stroke-dashoffset="0"/>
    <path id="tmpSideBtnOut" d="M166.5 133.4h25.8c.8 0 1.5.9 1.5 2v1.4c0 1-.7 1.9-1.5 1.9h-25.8c-.8 0-1.5-.9-1.5-2v-1.4c0-1 .7-1.9 1.5-1.9z" opacity="1" vector-effect="none" fill="#f43232" fill-opacity=".9" stroke-width=".9" stroke-miterlimit="4" stroke-dasharray="none" stroke-dashoffset="0"/>
    <path id="tmpNavLine1" d="M6.2 101h28.7c1.2 0 2.2.5 2.2 1.3v1c0 .8-1 1.4-2.2 1.4H6.2c-1.2 0-2.1-.6-2.1-1.4v-1c0-.8 1-1.4 2-1.4z" opacity="1" vector-effect="none" fill="#ccc" fill-opacity="1" stroke-width=".9" stroke-miterlimit="4" stroke-dasharray="none" stroke-dashoffset="0"/>
    <path d="M173 134.8h12.7c.5 0 .8.4.8.9v.7c0 .5-.3 1-.8 1h-12.6c-.5 0-.8-.5-.8-1v-.7c0-.5.3-1 .8-1z" id="tmpSideBtnIn" opacity="1" vector-effect="none" fill="#fff" fill-opacity=".9" stroke-width=".4" stroke-miterlimit="4" stroke-dasharray="none" stroke-dashoffset="0"/>
    <path d="M6.2 87h25.7c.9 0 1.5.8 1.5 1.8v1.5c0 1-.6 1.9-1.5 1.9H6.2c-.9 0-1.6-.9-1.6-2v-1.4c0-1 .7-1.9 1.6-1.9z" id="tmpNavHead" opacity="1" vector-effect="none" fill="#f43232" fill-opacity=".9" stroke-width=".9" stroke-miterlimit="4" stroke-dasharray="none" stroke-dashoffset="0"/>
    <path id="tmpNavLine2" d="M6.2 108.2h25.7c1.2 0 2.1.6 2.1 1.4v1c0 .8-.9 1.4-2 1.4H6.1c-1.2 0-2.1-.6-2.1-1.4v-1c0-.8 1-1.4 2-1.4z" opacity="1" vector-effect="none" fill="#ccc" fill-opacity="1" stroke-width=".9" stroke-miterlimit="4" stroke-dasharray="none" stroke-dashoffset="0"/>
    <path id="tmpNavLine3" d="M6.2 115.5h18.2c1.2 0 2.2.6 2.2 1.4v1c0 .8-1 1.4-2.2 1.4H6.2c-1.2 0-2.1-.6-2.1-1.4v-1c0-.8 1-1.4 2-1.4z" opacity="1" vector-effect="none" fill="#ccc" fill-opacity="1" stroke-width=".9" stroke-miterlimit="4" stroke-dasharray="none" stroke-dashoffset="0"/>
    <path d="M6.2 122.8h25.7c1.2 0 2.1.6 2.1 1.4v1c0 .8-.9 1.4-2 1.4H6.1c-1.2 0-2.1-.6-2.1-1.4v-1c0-.8 1-1.4 2-1.4z" id="tmpNavLine4" opacity="1" vector-effect="none" fill="#ccc" fill-opacity="1" stroke-width=".9" stroke-miterlimit="4" stroke-dasharray="none" stroke-dashoffset="0"/>
    <path d="M28.2 1.9a26.2 26.2 0 00-25 18.3h794.2a26.2 26.2 0 00-25-18.3z" transform="matrix(.26458 0 0 .26458 -1 68.8)" id="tmpTab" opacity="1" vector-effect="none" fill="#ccc" fill-opacity="1" stroke-width="3.8" stroke-miterlimit="4" stroke-dasharray="none" stroke-dashoffset="0"/>
  </g>
</svg>
