<?xml version="1.0" encoding="UTF-8" standalone="no"?>
<!-- Created with Inkscape (http://www.inkscape.org/) -->

<svg
   xmlns:dc="http://purl.org/dc/elements/1.1/"
   xmlns:cc="http://creativecommons.org/ns#"
   xmlns:rdf="http://www.w3.org/1999/02/22-rdf-syntax-ns#"
   xmlns:svg="http://www.w3.org/2000/svg"
   xmlns="http://www.w3.org/2000/svg"
   xmlns:sodipodi="http://sodipodi.sourceforge.net/DTD/sodipodi-0.dtd"
   xmlns:inkscape="http://www.inkscape.org/namespaces/inkscape"
   width="46.842819mm"
   height="46.843388mm"
   viewBox="0 0 46.842819 46.843388"
   version="1.1"
   id="svg1901"
   inkscape:version="0.92.4 (5da689c313, 2019-01-14)"
   sodipodi:docname="apollo.svg">
  <defs
     id="defs1895" />
  <sodipodi:namedview
     id="base"
     pagecolor="#ffffff"
     bordercolor="#666666"
     borderopacity="1.0"
     inkscape:pageopacity="0.0"
     inkscape:pageshadow="2"
     inkscape:zoom="0.35"
     inkscape:cx="-214.33528"
     inkscape:cy="-88.619918"
     inkscape:document-units="mm"
     inkscape:current-layer="layer1"
     showgrid="false"
     fit-margin-top="0"
     fit-margin-left="0"
     fit-margin-right="0"
     fit-margin-bottom="0"
     inkscape:window-width="1366"
     inkscape:window-height="705"
     inkscape:window-x="-8"
     inkscape:window-y="-8"
     inkscape:window-maximized="1" />
  <metadata
     id="metadata1898">
    <rdf:RDF>
      <cc:Work
         rdf:about="">
        <dc:format>image/svg+xml</dc:format>
        <dc:type
           rdf:resource="http://purl.org/dc/dcmitype/StillImage" />
        <dc:title></dc:title>
      </cc:Work>
    </rdf:RDF>
  </metadata>
  <g
     inkscape:label="Layer 1"
     inkscape:groupmode="layer"
     id="layer1"
     transform="translate(-20.423828,-78.542591)">
    <path
       style="color:#000000;font-style:normal;font-variant:normal;font-weight:normal;font-stretch:normal;font-size:medium;line-height:normal;font-family:sans-serif;font-variant-ligatures:normal;font-variant-position:normal;font-variant-caps:normal;font-variant-numeric:normal;font-variant-alternates:normal;font-feature-settings:normal;text-indent:0;text-align:start;text-decoration:none;text-decoration-line:none;text-decoration-style:solid;text-decoration-color:#000000;letter-spacing:normal;word-spacing:normal;text-transform:none;writing-mode:lr-tb;direction:ltr;text-orientation:mixed;dominant-baseline:auto;baseline-shift:baseline;text-anchor:start;white-space:normal;shape-padding:0;clip-rule:nonzero;display:inline;overflow:visible;visibility:visible;opacity:1;isolation:auto;mix-blend-mode:normal;color-interpolation:sRGB;color-interpolation-filters:linearRGB;solid-color:#000000;solid-opacity:1;vector-effect:none;fill:#000000;fill-opacity:1;fill-rule:nonzero;stroke:none;stroke-width:0.15652567;stroke-linecap:round;stroke-linejoin:round;stroke-miterlimit:4;stroke-dasharray:none;stroke-dashoffset:0;stroke-opacity:1;color-rendering:auto;image-rendering:auto;shape-rendering:auto;text-rendering:auto;enable-background:accumulate"
       d="m 43.845518,78.542591 c -12.9126,0 -23.42169,10.50911 -23.42169,23.421689 0,12.91259 10.50909,23.4217 23.42169,23.4217 12.91255,0 23.42113,-10.50911 23.42113,-23.4217 0,-2.950259 -0.55,-5.774509 -1.55054,-8.377149 l -0.005,8.73e-4 a 1.9287169,1.9287169 0 0 0 -1.807429,-1.25856 1.9287169,1.9287169 0 0 0 -1.928342,1.92887 1.9287169,1.9287169 0 0 0 0.0438,0.39884 l -0.005,0.002 c 0.005,0.012 0.008,0.0242 0.0145,0.0361 a 1.9287169,1.9287169 0 0 0 0.188371,0.49221 c 0.776171,2.1106 1.20134,4.39273 1.20134,6.776946 0,10.83202 -8.740561,19.57097 -19.572569,19.57097 -10.83203,0 -19.5726,-8.73895 -19.5726,-19.57097 0,-10.832016 8.74057,-19.572596 19.5726,-19.572596 2.38766,0 4.672051,0.42732 6.78505,1.20569 a 4.3432844,4.3432844 0 0 0 4.332129,4.03207 4.3432844,4.3432844 0 0 0 4.01316,-2.68715 l 0.55156,-0.358349 c -0.11218,-0.1013 -0.229092,-0.19765 -0.343241,-0.29683 a 4.3432844,4.3432844 0 0 0 0.121991,-1.001164 4.3432844,4.3432844 0 0 0 -4.343471,-4.34346 4.3432844,4.3432844 0 0 0 -2.88199,1.10098 c -2.563691,-0.96672 -5.337769,-1.50089 -8.235189,-1.50089 z m -2.18739,11.71463 -7.93729,20.901849 h 4.22311 l 1.57698,-4.47894 h 6.58536 l -1.15818,-3.67262 h -4.10438 l 2.82367,-8.002599 2.82425,8.002599 h -0.0351 l 1.3028,3.67262 h 0.0296 l 1.576972,4.47894 h 4.324588 l -7.96267,-20.901849 z"
       id="path1135"
       inkscape:connector-curvature="0" />
  </g>
</svg>
