<?xml version="1.0" encoding="UTF-8" standalone="no"?>
<!-- Created with Inkscape (http://www.inkscape.org/) -->

<svg
   xmlns:dc="http://purl.org/dc/elements/1.1/"
   xmlns:cc="http://creativecommons.org/ns#"
   xmlns:rdf="http://www.w3.org/1999/02/22-rdf-syntax-ns#"
   xmlns:svg="http://www.w3.org/2000/svg"
   xmlns="http://www.w3.org/2000/svg"
   xmlns:sodipodi="http://sodipodi.sourceforge.net/DTD/sodipodi-0.dtd"
   xmlns:inkscape="http://www.inkscape.org/namespaces/inkscape"
   width="42.934849mm"
   height="63.512409mm"
   viewBox="0 0 42.934849 63.512409"
   version="1.1"
   id="svg827"
   inkscape:version="0.92.4 (5da689c313, 2019-01-14)"
   sodipodi:docname="css.svg">
  <defs
     id="defs821" />
  <sodipodi:namedview
     id="base"
     pagecolor="#ffffff"
     bordercolor="#666666"
     borderopacity="1.0"
     inkscape:pageopacity="0.0"
     inkscape:pageshadow="2"
     inkscape:zoom="0.35"
     inkscape:cx="-290.29185"
     inkscape:cy="-11.405115"
     inkscape:document-units="mm"
     inkscape:current-layer="layer1"
     showgrid="false"
     fit-margin-top="0"
     fit-margin-left="0"
     fit-margin-right="0"
     fit-margin-bottom="0"
     inkscape:window-width="1366"
     inkscape:window-height="705"
     inkscape:window-x="-8"
     inkscape:window-y="-8"
     inkscape:window-maximized="1" />
  <metadata
     id="metadata824">
    <rdf:RDF>
      <cc:Work
         rdf:about="">
        <dc:format>image/svg+xml</dc:format>
        <dc:type
           rdf:resource="http://purl.org/dc/dcmitype/StillImage" />
        <dc:title></dc:title>
      </cc:Work>
    </rdf:RDF>
  </metadata>
  <g
     inkscape:label="Layer 1"
     inkscape:groupmode="layer"
     id="layer1"
     transform="translate(-40.520671,-82.303319)">
    <path
       inkscape:connector-curvature="0"
       style="opacity:1;fill:#000000;fill-opacity:1;stroke:none;stroke-width:1.09360826;stroke-linecap:round;stroke-linejoin:round;stroke-miterlimit:4;stroke-dasharray:none;stroke-opacity:1"
       d="m 52.018161,82.303319 c -1.381059,0 -2.476119,0.428599 -3.286104,1.285187 -0.809992,0.850795 -1.215429,2.042425 -1.215429,3.574998 0,1.515083 0.402484,2.700787 1.206643,3.557402 0.809995,0.856588 1.893736,1.285187 3.251482,1.285187 1.194586,0 2.147295,-0.28276 2.858223,-0.848016 0.710927,-0.56523 1.191723,-1.40171 1.442288,-2.508885 l -2.412772,-0.410819 c -0.122372,0.646801 -0.331716,1.104477 -0.628901,1.372526 -0.297194,0.262229 -0.678972,0.393251 -1.145151,0.393251 -0.623512,0 -1.122051,-0.227092 -1.494999,-0.68162 -0.367112,-0.454528 -0.550352,-1.232853 -0.550352,-2.334207 0,-0.990653 0.180282,-1.695556 0.541567,-2.115132 0.36712,-0.425397 0.856785,-0.638202 1.468644,-0.638202 0.460354,0 0.833263,0.122688 1.118796,0.367427 0.291367,0.24474 0.478076,0.60878 0.559655,1.092438 l 2.42104,-0.437197 C 55.861432,84.26121 55.380637,83.521302 54.710503,83.037644 54.046197,82.548165 53.148646,82.303319 52.018161,82.303319 Z m 9.720852,0 c -1.334439,0 -2.319173,0.273897 -2.95434,0.821664 -0.635174,0.547767 -0.952912,1.223618 -0.952912,2.027793 0,0.891566 0.36699,1.588109 1.101224,2.089256 0.530278,0.361288 1.785943,0.760307 3.767212,1.197345 0.425387,0.09906 0.699281,0.206957 0.821653,0.323506 0.116549,0.12237 0.175183,0.277072 0.175183,0.463524 0,0.273897 -0.107886,0.492098 -0.323493,0.655267 -0.3205,0.233098 -0.798332,0.349858 -1.433504,0.349858 -0.576892,0 -1.025671,-0.122687 -1.346171,-0.367426 -0.3205,-0.250587 -0.53331,-0.614601 -0.638204,-1.092439 l -2.464967,0.375682 c 0.227261,0.879925 0.708057,1.576494 1.442291,2.089283 0.740059,0.512789 1.742538,0.769461 3.007051,0.769461 1.392714,0 2.444435,-0.306414 3.155363,-0.918289 0.710927,-0.611849 1.066601,-1.342893 1.066601,-2.193661 0,-0.780865 -0.256662,-1.389724 -0.769461,-1.826763 -0.518628,-0.431218 -1.433402,-0.79576 -2.744536,-1.092967 -1.305301,-0.29718 -2.068859,-0.527235 -2.2903,-0.690404 -0.16316,-0.122369 -0.24443,-0.271145 -0.24443,-0.445955 0,-0.203941 0.0931,-0.369967 0.27957,-0.498157 0.279706,-0.180631 0.742754,-0.270775 1.389581,-0.270775 0.512791,0 0.906401,0.09604 1.180287,0.288343 0.279707,0.192299 0.468866,0.469159 0.567926,0.830448 l 2.316654,-0.428414 c -0.233095,-0.809995 -0.658722,-1.421818 -1.276408,-1.835547 -0.617693,-0.413729 -1.561528,-0.620633 -2.83187,-0.620633 z m 10.297565,0 c -1.334442,0 -2.319168,0.273897 -2.954343,0.821664 -0.635174,0.547767 -0.952912,1.223618 -0.952912,2.027793 0,0.891566 0.366985,1.588109 1.101225,2.089256 0.530278,0.361288 1.785948,0.760307 3.767211,1.197345 0.425389,0.09906 0.699283,0.206957 0.821656,0.323506 0.116543,0.12237 0.175183,0.277072 0.175183,0.463524 0,0.273897 -0.107886,0.492098 -0.323495,0.655267 -0.320498,0.233098 -0.798336,0.349858 -1.433505,0.349858 -0.5769,0 -1.02567,-0.122687 -1.346171,-0.367426 -0.3205,-0.250587 -0.533318,-0.614601 -0.638204,-1.092439 l -2.464967,0.375682 c 0.227261,0.879925 0.708052,1.576494 1.442292,2.089283 0.740058,0.512789 1.742538,0.769461 3.00705,0.769461 1.392711,0 2.444438,-0.306414 3.155363,-0.918289 0.710925,-0.611849 1.066085,-1.342893 1.066085,-2.193661 0,-0.780865 -0.256145,-1.389724 -0.768945,-1.826763 -0.518626,-0.431218 -1.433404,-0.79576 -2.744536,-1.092967 -1.305306,-0.29718 -2.068865,-0.527235 -2.2903,-0.690404 -0.163166,-0.122369 -0.24443,-0.271145 -0.24443,-0.445955 0,-0.203941 0.0931,-0.369967 0.279572,-0.498157 0.279705,-0.180631 0.742752,-0.270775 1.389579,-0.270775 0.512799,0 0.906407,0.09604 1.18029,0.288343 0.279707,0.192299 0.46886,0.469159 0.567923,0.830448 l 2.316655,-0.428414 c -0.23309,-0.809995 -0.65872,-1.421818 -1.276409,-1.835547 -0.617688,-0.413729 -1.561528,-0.620633 -2.831867,-0.620633 z m -31.515907,14.006909 3.903639,46.225082 17.563785,3.28042 17.564304,-3.28042 c 0.325257,-6.60353 3.90312,-46.225082 3.90312,-46.225082 z m 9.162749,11.283552 h 20.160527 3.528983 0.91984 l -1.09244,9.09815 -0.575157,4.88704 -1.176158,9.4728 -10.391097,3.48041 -10.391095,-3.48041 -0.47284,-7.41762 4.829162,0.0217 0.08268,3.94652 5.937623,2.26446 0.01447,4.66535 0.01497,-4.66535 5.97638,-2.27943 0.746207,-6.00843 H 50.008458 l -0.09767,-4.82968 18.847943,-0.0465 0.509532,-4.27932 H 49.683412 Z"
       id="path1083" />
  </g>
</svg>
