<?xml version="1.0" encoding="UTF-8" standalone="no"?>
<!-- Created with Inkscape (http://www.inkscape.org/) -->

<svg
   xmlns:dc="http://purl.org/dc/elements/1.1/"
   xmlns:cc="http://creativecommons.org/ns#"
   xmlns:rdf="http://www.w3.org/1999/02/22-rdf-syntax-ns#"
   xmlns:svg="http://www.w3.org/2000/svg"
   xmlns="http://www.w3.org/2000/svg"
   xmlns:sodipodi="http://sodipodi.sourceforge.net/DTD/sodipodi-0.dtd"
   xmlns:inkscape="http://www.inkscape.org/namespaces/inkscape"
   width="42.934849mm"
   height="62.708279mm"
   viewBox="0 0 42.934849 62.708279"
   version="1.1"
   id="svg8"
   inkscape:version="0.92.4 (5da689c313, 2019-01-14)"
   sodipodi:docname="html.svg">
  <defs
     id="defs2" />
  <sodipodi:namedview
     id="base"
     pagecolor="#ffffff"
     bordercolor="#666666"
     borderopacity="1.0"
     inkscape:pageopacity="0.0"
     inkscape:pageshadow="2"
     inkscape:zoom="0.35"
     inkscape:cx="-264.57757"
     inkscape:cy="104.21804"
     inkscape:document-units="mm"
     inkscape:current-layer="layer1"
     showgrid="false"
     fit-margin-top="0"
     fit-margin-left="0"
     fit-margin-right="0"
     fit-margin-bottom="0"
     inkscape:window-width="1366"
     inkscape:window-height="705"
     inkscape:window-x="-8"
     inkscape:window-y="-8"
     inkscape:window-maximized="1" />
  <metadata
     id="metadata5">
    <rdf:RDF>
      <cc:Work
         rdf:about="">
        <dc:format>image/svg+xml</dc:format>
        <dc:type
           rdf:resource="http://purl.org/dc/dcmitype/StillImage" />
        <dc:title></dc:title>
      </cc:Work>
    </rdf:RDF>
  </metadata>
  <g
     inkscape:label="Layer 1"
     inkscape:groupmode="layer"
     id="layer1"
     transform="translate(-33.7171,-113.69941)">
    <path
       inkscape:connector-curvature="0"
       style="opacity:1;fill:#000000;fill-opacity:1;stroke:none;stroke-width:1.09360826;stroke-linecap:round;stroke-linejoin:round;stroke-miterlimit:4;stroke-dasharray:none;stroke-opacity:1"
       d="m 38.988097,113.69941 v 8.48993 h 1.714106 v -3.71192 h 3.35897 v 3.71192 h 1.714622 v -8.48993 h -1.714622 v 3.3414 h -3.35897 v -3.3414 z m 8.177795,0 v 1.43608 h 2.519228 v 7.05385 h 1.714621 v -7.05385 h 2.513026 v -1.43608 z m 8.056356,0 v 8.48993 h 1.592667 v -6.68333 l 1.679485,6.68333 h 1.650545 l 1.685169,-6.68333 v 6.68333 h 1.592667 v -8.48993 h -2.571419 l -1.522905,5.79139 -1.540473,-5.79139 z m 10.181807,0.0692 v 8.42069 h 5.976898 v -1.43042 h -4.26279 v -6.99027 z m -31.686955,13.13358 3.903639,46.22508 17.563785,3.28042 17.564304,-3.28042 c 0.325249,-6.60354 3.90312,-46.22508 3.90312,-46.22508 z m 8.931754,10.22625 h 4.82968 20.24166 l -0.568958,4.83018 H 47.478534 v 6.43993 h 18.859315 l -0.45992,4.82968 -1.463476,9.4728 -10.391098,3.4799 -10.391098,-3.4799 -0.472839,-7.41763 4.828646,0.0217 0.08268,3.94653 5.937623,2.26446 0.01497,4.66484 0.01498,-4.66484 6.088001,-2.32182 0.921907,-5.96604 H 42.973878 l -0.227374,-11.26961 h -0.09767 z"
       id="path1065" />
  </g>
</svg>
