<?xml version="1.0" encoding="UTF-8" standalone="no"?>
<!-- Created with Inkscape (http://www.inkscape.org/) -->

<svg
   xmlns:dc="http://purl.org/dc/elements/1.1/"
   xmlns:cc="http://creativecommons.org/ns#"
   xmlns:rdf="http://www.w3.org/1999/02/22-rdf-syntax-ns#"
   xmlns:svg="http://www.w3.org/2000/svg"
   xmlns="http://www.w3.org/2000/svg"
   xmlns:sodipodi="http://sodipodi.sourceforge.net/DTD/sodipodi-0.dtd"
   xmlns:inkscape="http://www.inkscape.org/namespaces/inkscape"
   width="102.70726mm"
   height="33.00848mm"
   viewBox="0 0 102.70726 33.00848"
   version="1.1"
   id="svg4165"
   inkscape:version="0.92.4 (5da689c313, 2019-01-14)"
   sodipodi:docname="mongodb.svg">
  <defs
     id="defs4159" />
  <sodipodi:namedview
     id="base"
     pagecolor="#ffffff"
     bordercolor="#666666"
     borderopacity="1.0"
     inkscape:pageopacity="0.0"
     inkscape:pageshadow="2"
     inkscape:zoom="0.35"
     inkscape:cx="-154.47897"
     inkscape:cy="-120.47892"
     inkscape:document-units="mm"
     inkscape:current-layer="layer1"
     showgrid="false"
     fit-margin-top="0"
     fit-margin-left="0"
     fit-margin-right="0"
     fit-margin-bottom="0"
     inkscape:window-width="1366"
     inkscape:window-height="705"
     inkscape:window-x="-8"
     inkscape:window-y="-8"
     inkscape:window-maximized="1" />
  <metadata
     id="metadata4162">
    <rdf:RDF>
      <cc:Work
         rdf:about="">
        <dc:format>image/svg+xml</dc:format>
        <dc:type
           rdf:resource="http://purl.org/dc/dcmitype/StillImage" />
        <dc:title></dc:title>
      </cc:Work>
    </rdf:RDF>
  </metadata>
  <g
     inkscape:label="Layer 1"
     inkscape:groupmode="layer"
     id="layer1"
     transform="translate(-4.5868462,-83.948141)">
    <path
       style="opacity:1;fill:#000000;fill-opacity:1;stroke:none;stroke-width:2.88761926;stroke-linecap:round;stroke-linejoin:round;stroke-miterlimit:4;stroke-dasharray:none;stroke-opacity:1"
       d="m 13.156437,83.948141 c 0.0665,0.66392 -0.57112,0.92486 -1.17646,1.16248 -3.3384298,1.31044 -7.7095997,7.1024 -7.3700497,13.85557 -0.38018,9.417089 4.0072499,13.929349 7.9191497,14.538539 l 0.13839,2.89485 1.22489,0.55704 0.1384,-3.4466 c 3.94476,-0.57998 7.81209,-4.86088 7.3954,-14.543829 -0.30152,-7.00604 -5.4531,-11.85471 -7.23733,-13.85822 z m 71.77979,13.76217 v 0.45569 c 0.291399,0.0806 0.495959,0.15491 0.61377,0.22312 0.117808,0.062 0.210518,0.14569 0.278709,0.2511 0.0744,0.1054 0.127421,0.25729 0.158459,0.45568 0.031,0.1922 0.0465,0.50536 0.0465,0.939359 v 8.0447 c 0,0.42779 -0.01551,0.74095 -0.0465,0.93936 -0.031,0.1984 -0.0808,0.35029 -0.149018,0.45569 -0.0682,0.1054 -0.16414,0.19197 -0.28815,0.26018 -0.124002,0.0682 -0.328562,0.13963 -0.61377,0.21404 v 0.45568 h 3.366418 c 1.035431,0 1.866292,-0.0527 2.492499,-0.15807 0.6262,-0.1054 1.177822,-0.28219 1.655213,-0.53018 0.576609,-0.30381 1.063299,-0.69128 1.46009,-1.16248 0.458808,-0.53941 0.806259,-1.20575 1.04186,-1.99936 0.241789,-0.7998 0.362648,-1.72376 0.362648,-2.77157 0,-1.0354 -0.126978,-1.92507 -0.381179,-2.66908 -0.25421,-0.7502 -0.63881,-1.376519 -1.153401,-1.878729 -0.51462,-0.5022 -1.14704,-0.88029 -1.897259,-1.13449 -0.744011,-0.2604 -1.701871,-0.39064 -2.873671,-0.39064 z m 12.974069,0 v 0.45569 c 0.285199,0.0806 0.486899,0.15491 0.6047,0.22312 0.117789,0.062 0.210499,0.14895 0.278691,0.26055 0.0744,0.1054 0.127058,0.25728 0.158077,0.45569 0.031,0.1922 0.0465,0.50211 0.0465,0.929899 v 8.0447 c 0,0.4588 -0.02159,0.79973 -0.065,1.02293 -0.0372,0.22321 -0.120909,0.39673 -0.2511,0.52074 -0.130199,0.11779 -0.38743,0.22639 -0.77184,0.3256 v 0.45568 h 4.789476 c 0.96098,0 1.7796,-0.11759 2.45541,-0.3532 0.67581,-0.2418 1.19965,-0.62966 1.57165,-1.16286 0.3782,-0.53321 0.56725,-1.22119 0.56725,-2.0644 0,-0.7316 -0.21681,-1.36079 -0.65081,-1.8878 -0.43402,-0.53319 -1.07297,-0.92718 -1.91617,-1.18138 v -0.0836 c 0.527,-0.22321 0.95813,-0.46493 1.29294,-0.72532 0.33481,-0.26041 0.60429,-0.58908 0.80889,-0.98588 0.21082,-0.3968 0.31653,-0.8651 0.31653,-1.4045 0,-0.650999 -0.14576,-1.180979 -0.43716,-1.590179 -0.29139,-0.41541 -0.73805,-0.72856 -1.33946,-0.93936 -0.59519,-0.21081 -1.38567,-0.31615 -2.37147,-0.31615 z m -8.937911,0.80927 c 0.917601,0 1.704821,0.18579 2.362009,0.55779 0.663422,0.37201 1.175002,0.964029 1.534592,1.776239 0.365799,0.806 0.548719,1.83856 0.548719,3.09717 0,0.6262 -0.0404,1.20272 -0.12101,1.72972 -0.0744,0.52701 -0.195249,1.00756 -0.362648,1.44157 -0.167402,0.4278 -0.38422,0.80915 -0.65083,1.14395 -0.266602,0.3286 -0.56751,0.58583 -0.902301,0.77183 -0.334812,0.186 -0.706771,0.32237 -1.11597,0.40917 -0.409191,0.0868 -0.87425,0.13009 -1.39505,0.13009 -0.483611,0 -0.849429,-0.0123 -1.09742,-0.037 V 98.556701 c 0.3782,-0.0248 0.778309,-0.037 1.199909,-0.037 z m 13.560225,0.009 c 0.3906,0 0.75318,0.0372 1.08798,0.11156 0.33481,0.0682 0.62307,0.18618 0.86486,0.35358 0.24801,0.1674 0.44031,0.39361 0.5767,0.67881 0.1426,0.279 0.21405,0.632569 0.21405,1.060369 0,0.86801 -0.25111,1.53147 -0.7533,1.99028 -0.496,0.4526 -1.21541,0.67881 -2.1578,0.67881 h -1.62763 v -4.817439 c 0.1922,-0.0123 0.48083,-0.0246 0.86523,-0.037 0.38442,-0.0124 0.69432,-0.0189 0.92991,-0.0189 z m -55.320553,2.827159 c -0.79361,0 -1.50037,0.1739 -2.120371,0.52111 -0.620008,0.34099 -1.109951,0.86484 -1.469541,1.57165 -0.353419,0.70681 -0.530198,1.57158 -0.530198,2.59459 0,1.48801 0.338069,2.61327 1.013859,3.37587 0.682012,0.75641 1.667629,1.13487 2.957262,1.13487 0.855609,0 1.596628,-0.1739 2.222838,-0.52111 0.6262,-0.3534 1.11002,-0.88337 1.451031,-1.59018 0.340979,-0.7068 0.51127,-1.57483 0.51127,-2.60404 0,-1.44461 -0.340921,-2.5511 -1.022929,-3.31991 -0.682012,-0.775 -1.686423,-1.16285 -3.013221,-1.16285 z m 31.231859,0 c -0.793621,0 -1.50037,0.1739 -2.120379,0.52111 -0.61999,0.34099 -1.109951,0.86484 -1.46953,1.57165 -0.35342,0.70681 -0.530191,1.57158 -0.530191,2.59459 0,1.48801 0.338029,2.61327 1.013849,3.37587 0.68199,0.75641 1.667632,1.13487 2.95724,1.13487 0.855612,0 1.596652,-0.1739 2.222852,-0.52111 0.626208,-0.3534 1.11003,-0.88337 1.451028,-1.59018 0.340992,-0.7068 0.511281,-1.57483 0.511281,-2.60404 0,-1.44461 -0.34095,-2.5511 -1.02294,-3.31991 -0.682009,-0.775 -1.68641,-1.16285 -3.01321,-1.16285 z m -10.240331,3.7e-4 c -0.495998,0 -0.957789,0.0649 -1.38558,0.19513 -0.427829,0.124 -0.799769,0.3163 -1.115968,0.5767 -0.310012,0.2542 -0.554971,0.57962 -0.734771,0.97642 -0.173609,0.3906 -0.260189,0.85239 -0.260189,1.38559 0,0.57041 0.114718,1.07874 0.344138,1.52514 0.235601,0.4464 0.57653,0.79997 1.02294,1.06038 -0.502219,0.3782 -0.85253,0.71626 -1.050938,1.01386 -0.1984,0.2914 -0.297611,0.61356 -0.297611,0.96696 0,0.31001 0.0837,0.57987 0.251111,0.80928 0.167399,0.2294 0.396859,0.40293 0.68826,0.52073 -0.477411,0.2418 -0.846492,0.52068 -1.106882,0.83687 -0.260408,0.32241 -0.390659,0.67923 -0.390659,1.06983 0,0.43401 0.0992,0.79333 0.297621,1.07853 0.2046,0.29141 0.489969,0.52412 0.855779,0.69771 0.371999,0.1798 0.81502,0.30679 1.329629,0.38119 0.520812,0.0744 1.09446,0.11156 1.720641,0.11156 0.84322,0 1.58101,-0.12699 2.213409,-0.38119 0.632402,-0.2542 1.116211,-0.61065 1.45101,-1.06945 0.334811,-0.4526 0.502211,-0.97032 0.502211,-1.55312 0,-0.4588 -0.0902,-0.85891 -0.270021,-1.19992 -0.173569,-0.3472 -0.467979,-0.6232 -0.883388,-0.8278 -0.415391,-0.2046 -0.951492,-0.30669 -1.608712,-0.30669 h -2.232308 c -0.421592,0 -0.73764,-0.0249 -0.948431,-0.0745 -0.204589,-0.0496 -0.353239,-0.1333 -0.44623,-0.2511 -0.0868,-0.1178 -0.130469,-0.29133 -0.130469,-0.52073 0,-0.34721 0.23558,-0.70078 0.70679,-1.06037 0.372009,0.13019 0.815398,0.1955 1.329999,0.1955 1.147001,0 2.030561,-0.27274 2.65057,-0.81834 0.626181,-0.55181 0.939339,-1.33326 0.939339,-2.34387 0,-0.3844 -0.0559,-0.74084 -0.16751,-1.06944 -0.111609,-0.33481 -0.26348,-0.59817 -0.455689,-0.79037 l 0.0836,-0.10248 1.720649,0.065 v -0.93898 h -3.292298 c -0.440192,-0.10539 -0.883581,-0.15807 -1.330002,-0.15807 z m -35.909739,0.009 c -0.204589,0 -0.405918,0.0249 -0.604308,0.0745 -0.192202,0.0496 -0.400021,0.13329 -0.623221,0.2511 -0.2232,0.1116 -0.45553,0.26349 -0.69732,0.45568 -0.23562,0.186 -0.53939,0.46488 -0.91139,0.83688 l -0.13046,-0.037 0.10209,-1.51606 h -0.56723 l -2.17596,0.0836 v 0.49312 c 0.27899,0.0496 0.49294,0.11166 0.64174,0.18606 0.15501,0.0682 0.26936,0.17642 0.34375,0.32522 0.0744,0.1426 0.11807,0.3349 0.13046,0.57671 0.0123,0.24179 0.0185,0.56108 0.0185,0.95788 v 4.05506 c 0,0.43401 -0.0188,0.75329 -0.056,0.95789 -0.0372,0.2046 -0.0927,0.35649 -0.16715,0.45569 -0.0744,0.0992 -0.16423,0.17639 -0.26963,0.2322 -0.0992,0.0558 -0.2666,0.1211 -0.50219,0.19551 v 0.45568 h 3.64549 v -0.45568 c -0.2294,-0.062 -0.40294,-0.12081 -0.52074,-0.17661 -0.1116,-0.062 -0.19856,-0.12405 -0.26056,-0.18605 -0.062,-0.0682 -0.1147,-0.15516 -0.15806,-0.26056 -0.0372,-0.1054 -0.065,-0.25116 -0.0836,-0.43716 -0.0186,-0.186 -0.028,-0.45549 -0.028,-0.80889 v -3.48743 c 0,-0.2728 0.0588,-0.52716 0.1766,-0.76276 0.1178,-0.23561 0.29132,-0.46181 0.52073,-0.67881 0.23559,-0.217 0.46505,-0.38153 0.68826,-0.49312 0.2232,-0.11781 0.462039,-0.17661 0.71624,-0.17661 0.179811,0 0.34108,0.0188 0.483669,0.056 0.14261,0.031 0.266721,0.0804 0.372131,0.14862 0.105389,0.0682 0.207478,0.16741 0.306671,0.29761 0.10541,0.13021 0.189108,0.30087 0.251108,0.51166 0.0682,0.2108 0.11797,0.48968 0.148981,0.83688 0.031,0.3472 0.0466,0.79673 0.0466,1.34853 v 2.43652 c 0,0.4216 -0.0217,0.73801 -0.0651,0.94881 -0.0372,0.2046 -0.0931,0.35649 -0.167511,0.45569 -0.0682,0.0992 -0.155151,0.17677 -0.260561,0.23257 -0.10541,0.0558 -0.278929,0.12073 -0.52074,0.19514 v 0.45568 h 3.65497 v -0.45568 c -0.279008,-0.0744 -0.47743,-0.14585 -0.59523,-0.21404 -0.117798,-0.0744 -0.20764,-0.16097 -0.269629,-0.26018 -0.0558,-0.0992 -0.0991,-0.23883 -0.130101,-0.41863 -0.031,-0.1798 -0.0465,-0.50522 -0.0465,-0.97642 v -3.39441 c 0,-0.3224 0.0555,-0.60165 0.167158,-0.83725 0.111602,-0.2418 0.291621,-0.48026 0.539631,-0.71587 0.254209,-0.23559 0.486529,-0.40299 0.69732,-0.5022 0.217019,-0.0992 0.449361,-0.149 0.697349,-0.149 0.235591,0 0.425011,0.0249 0.56764,0.0745 0.1426,0.0496 0.266322,0.11778 0.371732,0.20459 0.10541,0.0868 0.198469,0.18889 0.27908,0.30669 0.0868,0.1178 0.158228,0.27907 0.214029,0.48367 0.0621,0.20461 0.105309,0.48061 0.13009,0.82781 0.031,0.341 0.0465,0.77501 0.0465,1.30202 v 2.43651 c 0,0.4216 -0.02159,0.73801 -0.0651,0.94881 -0.0372,0.2046 -0.0931,0.35649 -0.167521,0.45569 -0.0682,0.0992 -0.154778,0.17677 -0.260188,0.23257 -0.105381,0.0558 -0.278932,0.12073 -0.520722,0.19514 v 0.45568 h 3.654949 v -0.45568 c -0.27899,-0.0744 -0.47743,-0.14585 -0.595228,-0.21404 -0.117789,-0.0744 -0.208002,-0.16097 -0.270002,-0.26018 -0.0558,-0.0992 -0.0991,-0.23883 -0.130098,-0.41863 -0.031,-0.1798 -0.0465,-0.50522 -0.0465,-0.97642 v -3.50634 c 0,-0.6386 -0.0494,-1.14694 -0.14862,-1.52514 -0.093,-0.37821 -0.24489,-0.69135 -0.455691,-0.93936 -0.204589,-0.2542 -0.45896,-0.43999 -0.76277,-0.55779 -0.29759,-0.124 -0.654019,-0.18606 -1.06943,-0.18606 -0.34721,0 -0.672619,0.0621 -0.976429,0.18606 -0.29759,0.1178 -0.59236,0.28807 -0.883761,0.51128 -0.2852,0.2232 -0.660049,0.57063 -1.125048,1.04184 -0.148799,-0.58901 -0.418669,-1.02627 -0.809278,-1.31147 -0.390592,-0.28521 -0.896052,-0.42771 -1.51605,-0.42771 z m 26.720721,0 c -0.3224,0 -0.62942,0.0559 -0.920822,0.16753 -0.2852,0.10541 -0.570209,0.25729 -0.855408,0.45569 -0.279011,0.1984 -0.648092,0.52995 -1.10689,0.99495 l -0.13009,-0.037 0.10211,-1.51606 h -0.56725 l -2.17596,0.0839 v 0.49275 c 0.279008,0.0496 0.492548,0.11166 0.641368,0.18606 0.154983,0.0682 0.269732,0.1768 0.34412,0.3256 0.0744,0.1426 0.118091,0.33452 0.130482,0.57633 0.0123,0.2418 0.01849,0.56108 0.01849,0.95788 v 4.05506 c 0,0.43401 -0.0217,0.75329 -0.0651,0.95789 -0.0372,0.2046 -0.0931,0.35649 -0.167519,0.45569 -0.0682,0.0992 -0.155162,0.17677 -0.260551,0.23257 -0.0992,0.0558 -0.269481,0.12073 -0.51127,0.19514 v 0.45568 h 3.645501 v -0.45568 c -0.316201,-0.0806 -0.545661,-0.17369 -0.688272,-0.27909 -0.1364,-0.1116 -0.22911,-0.26962 -0.278688,-0.47422 -0.0496,-0.2108 -0.0745,-0.58276 -0.0745,-1.11596 v -3.4689 c 0,-0.29759 0.0588,-0.56133 0.176601,-0.79074 0.117798,-0.2294 0.306848,-0.46174 0.567259,-0.69733 0.26039,-0.23561 0.499221,-0.39975 0.71623,-0.49275 0.217011,-0.0992 0.446479,-0.149 0.68826,-0.149 0.2418,0 0.436989,0.0277 0.58578,0.0836 0.148799,0.0496 0.279051,0.12104 0.390649,0.21404 0.117801,0.0868 0.217011,0.1954 0.297611,0.32559 0.0868,0.12401 0.158229,0.3008 0.21403,0.53019 0.062,0.22321 0.105309,0.51147 0.130101,0.86486 0.02479,0.35341 0.037,0.74701 0.037,1.18102 v 2.43651 c 0,0.4216 -0.02159,0.73801 -0.0651,0.94881 -0.0372,0.2046 -0.0931,0.35649 -0.16755,0.45569 -0.0682,0.0992 -0.154778,0.17677 -0.260159,0.23257 -0.10541,0.0558 -0.278929,0.12073 -0.520751,0.19514 v 0.45568 h 3.664062 v -0.45568 c -0.29141,-0.0806 -0.495972,-0.15492 -0.613781,-0.22312 -0.1178,-0.0744 -0.207621,-0.16423 -0.269621,-0.26963 -0.062,-0.1054 -0.105698,-0.25441 -0.130468,-0.44662 -0.02479,-0.1922 -0.0371,-0.50211 -0.0371,-0.9299 v -3.50634 c 0,-0.5146 -0.0339,-0.93924 -0.1021,-1.27404 -0.062,-0.3348 -0.15834,-0.6198 -0.288531,-0.85541 -0.13021,-0.24179 -0.297609,-0.44348 -0.502219,-0.60468 -0.198401,-0.16121 -0.430721,-0.27881 -0.697341,-0.35321 -0.2604,-0.0806 -0.558041,-0.12101 -0.892839,-0.12101 z m 9.1705,0.69734 c 0.3472,0 0.65423,0.087 0.92083,0.26056 0.266589,0.1674 0.477279,0.43401 0.63229,0.79982 0.154988,0.36579 0.232569,0.82146 0.232569,1.36706 0,0.3038 -0.0339,0.59532 -0.102111,0.87432 -0.062,0.2728 -0.164459,0.51451 -0.307059,0.72532 -0.136401,0.2108 -0.316069,0.3782 -0.539271,0.5022 -0.22319,0.1178 -0.493059,0.1766 -0.809279,0.1766 -0.59519,0 -1.050851,-0.21069 -1.367049,-0.63229 -0.316201,-0.4216 -0.47422,-1.01976 -0.47422,-1.79477 0,-0.7378 0.154749,-1.30206 0.464769,-1.69266 0.309981,-0.3906 0.759529,-0.58616 1.348531,-0.58616 z m -21.01007,0.028 c 0.446389,0 0.842859,0.14288 1.19009,0.42808 0.3472,0.27901 0.620319,0.71915 0.818719,1.32055 0.2046,0.60141 0.306689,1.35758 0.306689,2.26899 0,0.4898 -0.0404,0.96097 -0.120999,1.41358 -0.0806,0.4464 -0.213738,0.84038 -0.39973,1.18138 -0.1798,0.34101 -0.41538,0.61375 -0.706789,0.81835 -0.29141,0.1984 -0.64497,0.29762 -1.060371,0.29762 -0.75642,0 -1.339051,-0.34093 -1.74825,-1.02294 -0.403011,-0.68821 -0.6047,-1.67096 -0.6047,-2.94817 0,-1.2028 0.198422,-2.12964 0.59523,-2.78064 0.403001,-0.65102 0.979919,-0.9768 1.730111,-0.9768 z m 31.231848,0 c 0.446402,0 0.84288,0.14288 1.190101,0.42808 0.347199,0.27901 0.620321,0.71915 0.818719,1.32055 0.204591,0.60141 0.306702,1.35758 0.306702,2.26899 0,0.4898 -0.0405,0.96097 -0.12102,1.41358 -0.0806,0.4464 -0.21372,0.84038 -0.39973,1.18138 -0.1798,0.34101 -0.415391,0.61375 -0.7068,0.81835 -0.291391,0.1984 -0.644962,0.29762 -1.060371,0.29762 -0.756391,0 -1.33904,-0.34093 -1.74824,-1.02294 -0.403,-0.68821 -0.604689,-1.67096 -0.604689,-2.94817 0,-1.2028 0.198419,-2.12964 0.59522,-2.78064 0.403008,-0.65102 0.97989,-0.9768 1.730108,-0.9768 z m 22.330625,2.12982 h 1.44156 c 0.806,0 1.43844,0.096 1.89724,0.28816 0.45881,0.1922 0.79687,0.48372 1.01387,0.87432 0.22319,0.3906 0.33468,0.88667 0.33468,1.48808 0,0.6014 -0.1021,1.1036 -0.30669,1.5066 -0.19841,0.3968 -0.52419,0.69732 -0.9768,0.90193 -0.44641,0.2046 -1.0756,0.30706 -1.8878,0.30706 -0.55801,0 -1.06345,-0.0217 -1.51606,-0.065 z m -34.133143,6.33351 c 0.384419,0.0372 0.82744,0.0556 1.32963,0.0556 h 1.385969 c 0.359611,0 0.65074,0.0372 0.873951,0.11156 0.223199,0.0806 0.39384,0.18594 0.511659,0.31614 0.12401,0.1302 0.207729,0.27596 0.2511,0.43716 0.0434,0.1674 0.065,0.33805 0.065,0.51166 0,0.372 -0.105349,0.69742 -0.31614,0.97642 -0.210809,0.279 -0.517811,0.49294 -0.92084,0.64174 -0.396801,0.14881 -0.87412,0.22312 -1.43211,0.22312 -0.91141,0 -1.590379,-0.13312 -2.036789,-0.39972 -0.44019,-0.2604 -0.660281,-0.6699 -0.660281,-1.2279 0,-0.3348 0.0776,-0.63532 0.232579,-0.90192 0.161211,-0.2604 0.400032,-0.50825 0.71623,-0.74385 z"
       id="path1184"
       inkscape:connector-curvature="0" />
  </g>
</svg>
