<?xml version="1.0" encoding="UTF-8" standalone="no"?>
<!-- Created with Inkscape (http://www.inkscape.org/) -->

<svg
   xmlns:dc="http://purl.org/dc/elements/1.1/"
   xmlns:cc="http://creativecommons.org/ns#"
   xmlns:rdf="http://www.w3.org/1999/02/22-rdf-syntax-ns#"
   xmlns:svg="http://www.w3.org/2000/svg"
   xmlns="http://www.w3.org/2000/svg"
   xmlns:sodipodi="http://sodipodi.sourceforge.net/DTD/sodipodi-0.dtd"
   xmlns:inkscape="http://www.inkscape.org/namespaces/inkscape"
   width="81.437881mm"
   height="46.81459mm"
   viewBox="0 0 81.437881 46.81459"
   version="1.1"
   id="svg1335"
   inkscape:version="0.92.4 (5da689c313, 2019-01-14)"
   sodipodi:docname="nextjs.svg">
  <defs
     id="defs1329" />
  <sodipodi:namedview
     id="base"
     pagecolor="#ffffff"
     bordercolor="#666666"
     borderopacity="1.0"
     inkscape:pageopacity="0.0"
     inkscape:pageshadow="2"
     inkscape:zoom="0.35"
     inkscape:cx="-231.81592"
     inkscape:cy="-28.674343"
     inkscape:document-units="mm"
     inkscape:current-layer="layer1"
     showgrid="false"
     fit-margin-top="0"
     fit-margin-left="0"
     fit-margin-right="0"
     fit-margin-bottom="0"
     inkscape:window-width="1366"
     inkscape:window-height="705"
     inkscape:window-x="-8"
     inkscape:window-y="-8"
     inkscape:window-maximized="1" />
  <metadata
     id="metadata1332">
    <rdf:RDF>
      <cc:Work
         rdf:about="">
        <dc:format>image/svg+xml</dc:format>
        <dc:type
           rdf:resource="http://purl.org/dc/dcmitype/StillImage" />
        <dc:title></dc:title>
      </cc:Work>
    </rdf:RDF>
  </metadata>
  <g
     inkscape:label="Layer 1"
     inkscape:groupmode="layer"
     id="layer1"
     transform="translate(-25.048915,-94.431991)">
    <path
       style="font-style:normal;font-variant:normal;font-weight:normal;font-stretch:normal;font-size:16.93333244px;line-height:0;font-family:Montserrat;-inkscape-font-specification:Montserrat;letter-spacing:0.31485417px;word-spacing:0px;fill:#000000;fill-opacity:1;stroke:none;stroke-width:0.40529367"
       d="M 82.958409,94.431991 65.761921,116.32576 60.28888,108.90698 h -2.204601 l 6.458601,8.8191 -6.899518,9.33838 h 2.204598 l 5.83638,-7.98951 5.86173,7.98951 h 2.2307 l -6.92562,-9.38983 z M 25.048915,108.90698 v 18.15748 h 1.9196 v -14.73385 l 23.006726,28.91597 -23.343936,-32.3396 z m 17.504386,0 v 18.15748 h 12.839578 v -1.66075 H 44.472941 v -6.74356 h 9.3898 v -1.63462 h -9.3898 v -6.45858 h 10.531271 v -1.65997 z m 31.497368,0 v 1.65997 h 6.380972 v 16.49751 h 1.9196 v -16.49751 h 6.381028 v -1.65997 z m 29.178751,9.03916 c -0.54014,0 -1.03075,0.0914 -1.47236,0.27389 -0.4416,0.18249 -0.77775,0.45024 -1.00768,0.80426 -0.22992,0.35037 -0.34433,0.72845 -0.34433,1.13356 0,0.36861 0.0925,0.70208 0.27863,1.00135 0.18976,0.29562 0.47643,0.54416 0.85968,0.74489 0.29561,0.15693 0.81188,0.32462 1.54911,0.50345 0.73723,0.17518 1.21349,0.30473 1.42882,0.38867 0.33579,0.12774 0.57673,0.28676 0.72272,0.47654 0.14599,0.18613 0.21926,0.40519 0.21926,0.65701 0,0.24818 -0.077,0.4778 -0.23032,0.68948 -0.14964,0.20803 -0.37928,0.37272 -0.68949,0.49316 -0.31025,0.12044 -0.66829,0.18048 -1.07338,0.18048 -0.45624,0 -0.86676,-0.079 -1.23173,-0.2359 -0.36496,-0.16057 -0.63461,-0.36829 -0.80982,-0.62376 -0.17156,-0.25913 -0.28111,-0.58961 -0.32849,-0.99107 l -1.00217,0.0879 c 0.0146,0.53649 0.16119,1.01843 0.43857,1.44543 0.28103,0.42337 0.66586,0.74061 1.15492,0.95229 0.49268,0.21167 1.10228,0.31743 1.82857,0.31743 0.57301,0 1.0874,-0.10386 1.5436,-0.31189 0.45985,-0.21168 0.81225,-0.50513 1.05677,-0.88104 0.24455,-0.37957 0.3665,-0.78333 0.3665,-1.21034 0,-0.43066 -0.11141,-0.80983 -0.33405,-1.13831 -0.22262,-0.33211 -0.56744,-0.60634 -1.03458,-0.82166 -0.3212,-0.14599 -0.91455,-0.31557 -1.77953,-0.509 -0.86129,-0.19708 -1.3938,-0.38856 -1.59819,-0.57469 -0.20804,-0.18613 -0.31192,-0.42331 -0.31192,-0.71164 0,-0.33212 0.14578,-0.61501 0.43776,-0.84859 0.29566,-0.23722 0.76435,-0.35621 1.40665,-0.35621 0.61682,0 1.0825,0.12955 1.39636,0.38867 0.31755,0.25913 0.50334,0.64288 0.5581,1.15018 l 1.01878,-0.0768 c -0.0183,-0.47081 -0.14971,-0.8927 -0.39423,-1.26496 -0.24455,-0.37227 -0.59501,-0.65326 -1.05121,-0.84304 -0.45255,-0.19344 -0.97639,-0.28973 -1.57132,-0.28973 z m -5.77621,0.13695 v 5.52925 c 0,0.45985 -0.0362,0.79522 -0.10927,1.0069 -0.073,0.20803 -0.20629,0.37461 -0.39973,0.4987 -0.19346,0.12044 -0.42305,0.18049 -0.689491,0.18049 -0.36132,0 -0.64422,-0.11332 -0.848569,-0.33959 -0.2043,-0.22629 -0.319481,-0.64629 -0.345151,-1.25942 l -0.957818,0.1314 c -0.01461,0.79927 0.16442,1.40208 0.536678,1.8072 0.37592,0.40511 0.916011,0.60715 1.620411,0.60715 0.474441,0 0.88691,-0.0963 1.23724,-0.28972 0.35402,-0.19344 0.611219,-0.47444 0.7718,-0.84305 0.164229,-0.36862 0.246218,-0.88869 0.246218,-1.56023 v -5.46908 z m -5.972571,7.0396 v 1.12248 h 1.12169 v -1.12248 z"
       id="path1156"
       inkscape:connector-curvature="0" />
  </g>
</svg>
