<?xml version="1.0" encoding="UTF-8" standalone="no"?>
<!-- Created with Inkscape (http://www.inkscape.org/) -->

<svg
   xmlns:dc="http://purl.org/dc/elements/1.1/"
   xmlns:cc="http://creativecommons.org/ns#"
   xmlns:rdf="http://www.w3.org/1999/02/22-rdf-syntax-ns#"
   xmlns:svg="http://www.w3.org/2000/svg"
   xmlns="http://www.w3.org/2000/svg"
   xmlns:sodipodi="http://sodipodi.sourceforge.net/DTD/sodipodi-0.dtd"
   xmlns:inkscape="http://www.inkscape.org/namespaces/inkscape"
   width="53.791607mm"
   height="48.424282mm"
   viewBox="0 0 53.791607 48.424282"
   version="1.1"
   id="svg2467"
   inkscape:version="0.92.4 (5da689c313, 2019-01-14)"
   sodipodi:docname="reactjs.svg">
  <defs
     id="defs2461" />
  <sodipodi:namedview
     id="base"
     pagecolor="#ffffff"
     bordercolor="#666666"
     borderopacity="1.0"
     inkscape:pageopacity="0.0"
     inkscape:pageshadow="2"
     inkscape:zoom="0.35"
     inkscape:cx="-284.06085"
     inkscape:cy="-148.48955"
     inkscape:document-units="mm"
     inkscape:current-layer="layer1"
     showgrid="false"
     fit-margin-top="0"
     fit-margin-left="0"
     fit-margin-right="0"
     fit-margin-bottom="0"
     inkscape:window-width="1366"
     inkscape:window-height="705"
     inkscape:window-x="-8"
     inkscape:window-y="-8"
     inkscape:window-maximized="1" />
  <metadata
     id="metadata2464">
    <rdf:RDF>
      <cc:Work
         rdf:about="">
        <dc:format>image/svg+xml</dc:format>
        <dc:type
           rdf:resource="http://purl.org/dc/dcmitype/StillImage" />
        <dc:title></dc:title>
      </cc:Work>
    </rdf:RDF>
  </metadata>
  <g
     inkscape:label="Layer 1"
     inkscape:groupmode="layer"
     id="layer1"
     transform="translate(-38.872054,-61.121192)">
    <path
       style="opacity:1;fill:#414141;fill-opacity:1;stroke:#000000;stroke-width:0.85321891;stroke-linecap:round;stroke-linejoin:round;stroke-miterlimit:4;stroke-dasharray:none;stroke-opacity:1"
       d="m 55.885662,61.547902 c -1.20057,0.005 -2.33933,0.27758 -3.35227,0.86239 -1.62069,0.9357 -2.70862,2.55178 -3.30063,4.52252 -0.591979,1.97073 -0.722029,4.3212 -0.456529,6.9292 0.0598,0.58731 0.140859,1.18866 0.240879,1.80096 -0.580019,0.21945 -1.141129,0.44983 -1.679409,0.6916 -2.39134,1.07409 -4.36185,2.36196 -5.77256,3.86003 -1.41072,1.49804 -2.26648,3.24735 -2.26648,5.11878 0,1.87141 0.85576,3.621709 2.26648,5.119749 1.41071,1.49806 3.38122,2.78593 5.77256,3.860022 0.5385,0.241879 1.09987,0.47208 1.680139,0.69161 -0.10005,0.61223 -0.181109,1.213469 -0.240899,1.800698 -0.26547,2.60803 -0.13616,4.957979 0.455819,6.928729 0.59201,1.97074 1.67994,3.5868 3.30063,4.52251 1.6207,0.93572 3.56411,1.06993 5.56684,0.59725 2.00271,-0.4727 4.10252,-1.53575 6.22837,-3.06968 0.47869,-0.34541 0.9588,-0.71637 1.439019,-1.1091 0.480171,0.3927 0.960101,0.76349 1.438772,1.10886 2.125859,1.53391 4.226378,2.59651 6.229088,3.06919 2.002711,0.47268 3.94639,0.33871 5.56709,-0.597 1.62069,-0.93572 2.707881,-2.55153 3.2999,-4.52228 0.59197,-1.97074 0.722032,-4.321208 0.456541,-6.929198 -0.0598,-0.587089 -0.140949,-1.18795 -0.24089,-1.799979 0.580239,-0.21953 1.141399,-0.449731 1.6799,-0.69161 2.391339,-1.074092 4.36185,-2.361962 5.77255,-3.860022 1.410718,-1.49804 2.266479,-3.248339 2.266479,-5.119749 0,-1.87143 -0.855761,-3.62074 -2.266479,-5.11878 -1.4107,-1.49807 -3.381211,-2.78594 -5.77255,-3.86003 -0.538511,-0.24188 -1.09964,-0.47231 -1.6799,-0.69185 0.100049,-0.6122 0.180869,-1.21324 0.24063,-1.80047 0.265499,-2.608 0.136189,-4.95796 -0.455789,-6.92871 -0.592011,-1.97074 -1.679702,-3.58706 -3.300392,-4.52276 -1.6207,-0.93572 -3.564379,-1.06968 -5.56709,-0.597 -2.00271,0.47268 -4.10252,1.53573 -6.22836,3.06966 -0.478639,0.34537 -0.958609,0.71621 -1.43877,1.10886 -0.480459,-0.39292 -0.960599,-0.76402 -1.439499,-1.10959 -2.12586,-1.53392 -4.22639,-2.5965 -6.22911,-3.06917 -0.75102,-0.17726 -1.49372,-0.26922 -2.21408,-0.26564 z m 0.0198,1.92079 c 0.54498,-4.31e-4 1.1285,0.072 1.75172,0.21905 1.66189,0.39225 3.56735,1.33018 5.54475,2.75698 0.36065,0.26023 0.72371,0.53703 1.08824,0.82892 -1.85948,1.70472 -3.70072,3.74339 -5.45016,6.06003 -2.88094,0.3567 -5.56722,0.93194 -7.97329,1.68984 -0.0705,-0.46156 -0.12869,-0.91416 -0.17369,-1.35653 -0.24696,-2.4259 -0.10731,-4.54473 0.38402,-6.18011 0.49125,-1.63537 1.30054,-2.76227 2.41953,-3.40831 0.69938,-0.40379 1.50058,-0.60877 2.40888,-0.60987 z m 19.72435,0 c 0.908672,8.6e-4 1.71046,0.20583 2.409841,0.60962 1.118989,0.64605 1.927789,1.77368 2.419059,3.40905 0.491241,1.63536 0.63146,3.75347 0.38449,6.17937 -0.045,0.44246 -0.103399,0.89514 -0.173919,1.35678 -2.406099,-0.75796 -5.092321,-1.33337 -7.9733,-1.69011 -1.74942,-2.3166 -3.59074,-4.35524 -5.450161,-6.06001 0.364522,-0.29188 0.727591,-0.56867 1.08825,-0.82891 1.977411,-1.42682 3.88188,-2.36423 5.543791,-2.75649 0.62321,-0.1471 1.206749,-0.2199 1.751949,-0.2193 z m -9.86182,5.06663 c 1.432232,1.29775 2.871092,2.82084 4.269992,4.53634 -1.38996,-0.10297 -2.815622,-0.15719 -4.269751,-0.15719 -1.45435,0 -2.88022,0.0543 -4.27047,0.15719 1.39889,-1.71553 2.83801,-3.23858 4.270229,-4.53634 z m 2.41e-4,6.30455 c 2.02543,0 3.993679,0.10988 5.87711,0.3139 1.118521,1.52924 2.19764,3.17911 3.21038,4.93321 1.01263,1.75391 1.90195,3.51309 2.666969,5.24615 -0.765109,1.73331 -1.654459,3.492729 -2.66722,5.246879 -1.01269,1.75404 -2.091679,3.403802 -3.210129,4.932961 -1.883431,0.204039 -3.85168,0.31391 -5.87711,0.31391 -2.02555,0 -3.99392,-0.10989 -5.87759,-0.31391 -1.11838,-1.529101 -2.19748,-3.178781 -3.21013,-4.932709 -1.01279,-1.75423 -1.90186,-3.513761 -2.66699,-5.247131 0.76507,-1.73313 1.65433,-3.49241 2.66699,-5.24639 1.0127,-1.75403 2.09168,-3.40379 3.21013,-4.93297 1.88367,-0.20404 3.85204,-0.3139 5.87759,-0.3139 z m -8.48416,0.66446 c -0.78421,1.15239 -1.54393,2.36014 -2.27108,3.61959 -0.7271,1.25939 -1.39325,2.52126 -1.99914,3.77657 -0.78624,-2.0692 -1.3857,-4.07695 -1.79344,-5.96615 1.84002,-0.59148 3.87847,-1.07631 6.06366,-1.43001 z m 16.96785,0 c 2.185231,0.35374 4.223851,0.83847 6.063909,1.43001 -0.4078,1.8893 -1.007399,3.89709 -1.793669,5.96639 -0.60588,-1.25527 -1.271799,-2.51717 -1.998901,-3.77656 -0.72718,-1.2595 -1.48709,-2.46739 -2.271339,-3.61984 z m 7.89519,2.07918 c 0.43487,0.1697 0.855859,0.3457 1.261431,0.52787 2.22436,0.99907 3.989398,2.18023 5.160018,3.42336 1.170651,1.24312 1.74226,2.50652 1.74226,3.79864 0,1.29209 -0.571609,2.55623 -1.74226,3.799369 -1.17062,1.243132 -2.935658,2.423541 -5.160018,3.422632 -0.405572,0.182149 -0.826561,0.358158 -1.261431,0.527849 -0.546631,-2.46262 -1.391369,-5.076579 -2.522899,-7.74985 1.131498,-2.67328 1.976278,-5.28725 2.522899,-7.74987 z m -32.7592,2.4e-4 c 0.54682,2.46265 1.39214,5.07657 2.52387,7.74987 -1.13149,2.673171 -1.9762,5.28709 -2.52288,7.74961 -0.435,-0.16972 -0.856289,-0.345649 -1.261939,-0.527849 -2.224371,-0.999091 -3.989381,-2.1795 -5.160021,-3.422632 -1.17066,-1.243139 -1.742,-2.507279 -1.742,-3.799369 0,-1.29212 0.57134,-2.55552 1.742,-3.79864 1.17064,-1.24313 2.93565,-2.42429 5.16002,-3.42336 0.40536,-0.18207 0.826309,-0.35801 1.26095,-0.52763 z m 16.380079,2.004 a 5.745875,5.745875 0 0 0 -5.745859,5.74587 5.745875,5.745875 0 0 0 5.745859,5.745859 5.745875,5.745875 0 0 0 5.745861,-5.745859 5.745875,5.745875 0 0 0 -5.745861,-5.74587 z m -12.754139,8.17827 c 0.60601,1.255411 1.27219,2.51754 1.99938,3.777041 0.72704,1.259279 1.48657,2.466869 2.2706,3.619138 -2.18518,-0.35373 -4.22365,-0.838309 -6.06366,-1.429798 0.4078,-1.889281 1.00739,-3.897072 1.79368,-5.966381 z m 25.50831,2.49e-4 c 0.786249,2.0692 1.38588,4.07693 1.793669,5.966132 -1.840058,0.591558 -3.878678,1.076298 -6.063909,1.430028 0.784209,-1.152409 1.54395,-2.36016 2.271099,-3.619598 0.727112,-1.259422 1.39324,-2.52127 1.999141,-3.776562 z m 2.14735,7.87745 c 0.0705,0.461582 0.128699,0.914162 0.173689,1.35654 0.24697,2.42588 0.10609,4.544479 -0.38522,6.179859 -0.491268,1.63538 -1.299089,2.76251 -2.41808,3.40856 -1.119018,0.64606 -2.500138,0.78257 -4.162039,0.39033 -1.661911,-0.39225 -3.566149,-1.32968 -5.543561,-2.7565 -0.360738,-0.26028 -0.723878,-0.53719 -1.088479,-0.82916 1.859319,-1.70471 3.70084,-3.743258 5.45016,-6.05977 2.881111,-0.356579 5.567381,-0.931997 7.97353,-1.689859 z m -29.80304,2.41e-4 c 2.40608,0.75778 5.09234,1.33282 7.9733,1.68937 1.74928,2.316728 3.59056,4.355448 5.44991,6.060258 -0.36438,0.29177 -0.72724,0.56855 -1.08775,0.82867 -1.9774,1.42683 -3.88213,2.36523 -5.54404,2.75746 -1.66191,0.39226 -3.04254,0.25477 -4.16154,-0.39127 -1.119,-0.64606 -1.9283,-1.77295 -2.41954,-3.40833 -0.49128,-1.63538 -0.63097,-3.754217 -0.38402,-6.180108 0.045,-0.442219 0.10329,-0.894651 0.17368,-1.35605 z m 10.63129,1.95113 c 1.39025,0.10287 2.81612,0.157181 4.27047,0.157181 1.454219,0 2.879971,-0.0544 4.269999,-0.157181 -1.398918,1.715569 -2.837968,3.238788 -4.27024,4.536578 -1.432269,-1.29783 -2.871279,-2.820948 -4.270229,-4.536578 z"
       id="path1116"
       inkscape:connector-curvature="0" />
  </g>
</svg>
